PathFileType	4	(X/Y/Z)	Run_400 02
DataRate	CameraRate	NumFrames	NumMarkers	Units	OrigDataRate	OrigDataStartFrame	OrigNumFrames
100	100	6	45	mm	100	74	137
Frame#	Time	LASI			RASI			LPSI			RPSI			RTH1			RTH2			RTH3			LTH1			LTH2			LTH3			RTB1			RTB2			RTB3			RLMAL			RMMAL			LTB1			LTB2			LTB3			RCAL			RTOE			RMT5			LCAL			LTOE			LMT5			LACR			RACR			CLAV			C7			LPSH			RUA1			RUA2			RUA3			RLEL			RMEL			LUA1			LUA2			LUA3			LLEL			LMEL			RFAsuperior			RFAradius			RFAulna			LFAsuperior			LFAradius			LFAulna			
		X1	Y1	Z1	X2	Y2	Z2	X3	Y3	Z3	X4	Y4	Z4	X5	Y5	Z5	X6	Y6	Z6	X7	Y7	Z7	X8	Y8	Z8	X9	Y9	Z9	X10	Y10	Z10	X11	Y11	Z11	X12	Y12	Z12	X13	Y13	Z13	X14	Y14	Z14	X15	Y15	Z15	X16	Y16	Z16	X17	Y17	Z17	X18	Y18	Z18	X19	Y19	Z19	X20	Y20	Z20	X21	Y21	Z21	X22	Y22	Z22	X23	Y23	Z23	X24	Y24	Z24	X25	Y25	Z25	X26	Y26	Z26	X27	Y27	Z27	X28	Y28	Z28	X29	Y29	Z29	X30	Y30	Z30	X31	Y31	Z31	X32	Y32	Z32	X33	Y33	Z33	X34	Y34	Z34	X35	Y35	Z35	X36	Y36	Z36	X37	Y37	Z37	X38	Y38	Z38	X39	Y39	Z39	X40	Y40	Z40	X41	Y41	Z41	X42	Y42	Z42	X43	Y43	Z43	X44	Y44	Z44	X45	Y45	Z45	

74	0.84	921.85693	995.780766	-445.727781	909.182493	1015.705371	-203.492319	752.754456	1043.208289	-385.126833	747.602202	1049.859236	-297.679241	868.986679	765.421352	-167.146336	961.916365	721.476938	-195.92833	924.156281	605.982713	-212.672925	850.359776	774.82295	-484.387674	947.4223030000001	680.857397	-482.192907	920.886524	582.652151	-468.313191	969.089004	373.059462	-289.880217	913.5692770000001	325.566296	-251.47742	889.414992	205.971425	-310.366563	807.234562	117.245625	-304.455887	836.043826	135.910068	-383.176936	850.626607	435.525981	-435.506318	746.666908	518.653451	-461.194929	659.9995249999999	450.067995	-427.315668	744.399232	99.69653	-374.318343	967.276899	63.582145	-329.052236	885.226631	55.213661	-265.370081	510.840957	546.892285	-384.499635	492.665928	325.099127	-409.011902	476.74499	385.143878	-474.677895	924.488431	1519.312897	-471.611393	891.94268	1471.090911	-154.703546	974.397568	1427.268463	-288.444174	862.656305	1524.194367	-312.508178	841.907179	1486.551042	-494.317824	811.468039	1322.88449	-86.195037	727.3915940000001	1289.4463	-119.986626	714.188356	1234.210051	-80.232725	709.645222	1168.880373	-53.21959	701.05975	1156.084178	-142.586589	845.65571	1408.583614	-563.804115	775.446834	1334.534602	-566.672017	797.589877	1298.769852	-630.3972230000001	801.098219	1225.451363	-662.17484	750.544091	1204.380904	-588.045249	759.0911160000001	1108.869129	-61.098546	955.997314	1114.928173	-88.848212	942.031033	1048.514481	-78.035178	856.909489	1158.033926	-618.519692	989.537917	1178.270234	-506.746689	996.342102	1118.862781	-541.527015	
75	0.85	918.505145	995.934256	-445.708483	906.401742	1013.345421	-202.554179	749.556327	1043.0311	-384.086931	744.501119	1049.422724	-296.697044	859.104034	762.419308	-166.956098	949.4581439999999	713.334686	-196.152242	905.944965	599.744327	-214.060984	857.755546	776.083676	-485.08693	963.159353	689.574722	-481.267589	942.43533	589.599904	-467.876952	942.501523	364.956111	-291.338854	885.048212	319.616041	-252.849238	855.170881	202.052561	-311.593384	768.911037	118.276568	-304.410635	798.484841	135.801726	-383.636375	880.54892	439.557056	-434.985621	772.818141	516.52172	-462.533708	688.836194	444.307053	-428.494816	705.4677830000001	100.357944	-374.577298	927.900637	63.220976	-328.74209	845.813251	55.419053	-265.057303	532.039525	533.894045	-389.135201	531.055082	311.156505	-411.740401	512.5450039999999	369.303115	-478.539948	923.242303	1517.359527	-471.872928	895.689154	1470.052367	-154.673739	974.3758319999999	1424.998988	-290.099734	862.799127	1523.006796	-312.122728	839.502698	1486.856451	-493.748443	820.515841	1319.5487	-84.524632	735.963262	1282.453923	-114.058583	727.179094	1226.838843	-73.51486800000001	726.730879	1161.573868	-47.388905	713.039054	1149.145137	-135.932589	839.9682780000001	1409.434566	-562.911974	767.510443	1337.251551	-563.364985	787.2390820000001	1301.949303	-628.630194	788.412941	1228.650586	-661.800061	740.21978	1207.936032	-587.1138130000001	778.276652	1103.614921	-57.926558	972.461731	1117.006688	-94.753124	960.848055	1050.191397	-83.498064	843.021507	1157.92034	-621.261108	980.3866389999999	1171.390329	-514.290605	983.036253	1112.029478	-549.502469	
76	0.86	916.470578	997.932722	-445.442497	904.944915	1012.564096	-203.324852	747.635519	1044.839707	-382.868792	743.222529	1050.831275	-295.754158	849.1159290000001	761.124344	-167.163889	935.98411	705.945296	-196.114558	887.061743	595.273676	-214.471849	865.1203400000001	779.171463	-485.667903	978.502911	700.881881	-480.327204	963.629741	599.40165	-467.704552	913.825584	358.375319	-291.277979	854.061587	315.530945	-253.769502	820.01378	199.783404	-312.161792	730.6343890000001	120.118725	-304.788444	761.262037	136.593254	-384.315427	909.8756059999999	445.310047	-434.050801	797.809863	514.714139	-463.52781	717.582672	437.886171	-429.384165	666.412482	101.417753	-375.702905	888.294271	63.121251	-328.511612	806.124055	55.769188	-265.103671	553.348307	517.505706	-392.506488	570.897525	295.29486	-414.808733	548.826584	351.844422	-482.09938	920.109028	1517.99707	-472.154591	899.360528	1471.176978	-154.928196	974.311135	1424.754322	-291.880152	862.323091	1523.047778	-311.762521	835.495919	1488.589475	-492.538579	829.210304	1319.348235	-82.680605	744.662724	1278.913095	-108.578985	740.032115	1223.12686	-67.676688	742.916516	1158.099578	-42.579707	724.491404	1145.984508	-130.202964	833.188974	1412.342187	-561.85788	759.299473	1342.420793	-560.558971	776.999041	1306.915034	-626.559305	775.216821	1233.618449	-660.684126	729.434585	1213.884112	-584.797152	796.634774	1102.587619	-56.178365	987.281085	1124.777323	-102.414733	978.892319	1057.638543	-90.660644	828.7808	1160.23597	-622.529524	970.373849	1169.290148	-520.611039	969.260573	1109.552211	-555.456653	
77	0.87	915.554274	1001.076963	-445.426473	904.570424	1013.526259	-204.604826	746.984694	1048.054514	-382.376249	743.271086	1053.544757	-295.413324	839.261567	761.235492	-167.898684	922.156674	700.790699	-196.670094	868.3357130000001	593.0482960000001	-213.982531	871.95054	784.191824	-485.820226	992.286139	714.218428	-479.297248	983.533556	611.8122540000001	-467.704678	883.425794	354.143128	-290.221086	821.337028	313.990288	-253.925205	783.952738	199.549838	-311.777255	691.885734	122.928507	-304.983772	723.775575	138.457419	-384.487324	938.06875	452.468925	-432.674575	821.510543	513.281346	-464.139296	746.460723	431.137992	-430.425525	626.989728	103.238531	-376.886503	848.038629	63.072524	-328.396363	765.816779	56.089232	-265.116429	575.354351	497.918396	-394.769419	611.857212	277.974843	-417.839914	585.576521	332.981193	-485.216499	915.382034	1520.914569	-472.504662	903.037253	1474.222412	-155.374819	974.364264	1426.743296	-293.682261	861.749241	1524.953255	-311.230699	830.145867	1491.620619	-490.55064	837.71332	1321.516787	-80.966708	753.291842	1278.830395	-103.492197	752.085928	1222.833415	-62.774563	757.712794	1158.070844	-38.557952	735.15154	1146.222424	-125.319499	825.353693	1417.025945	-560.649525	750.771537	1349.168191	-558.515697	766.523116	1312.966949	-624.485682	761.499668	1240.054908	-658.843273	717.810265	1221.378377	-581.323854	813.309982	1105.409027	-55.646111	999.6233109999999	1137.438645	-111.378937	995.165944	1070.036786	-99.382448	814.546782	1165.088196	-622.597036	959.759326	1171.850374	-525.562285	955.750662	1111.624949	-559.733473	
78	0.88	915.5529299999999	1005.034924	-445.292148	905.016535	1015.714195	-205.571568	747.325046	1052.379698	-382.6811	743.912626	1057.224554	-295.497174	829.240324	762.55102	-168.915346	907.961503	697.989323	-198.204321	848.753297	592.907697	-213.527611	878.112332	791.184219	-485.700845	1003.819782	728.945113	-478.158624	1001.005939	626.139894	-467.413534	851.458438	352.377884	-289.152698	787.449599	314.720314	-253.617556	747.152862	201.172561	-310.702205	652.6589310000001	126.757009	-304.731556	685.808637	141.334222	-383.920492	964.643954	460.725826	-431.1713	843.61866	511.927722	-464.244127	775.380956	424.114568	-431.536893	587.523672	106.728656	-377.196877	806.9367549999999	63.043718	-328.375478	725.035425	56.367699	-264.881162	598.258508	475.48416	-396.044787	654.146193	259.787604	-420.522976	623.325137	312.93991	-487.774408	909.784264	1525.524862	-472.910186	906.838881	1478.850971	-156.040821	974.554623	1430.856479	-295.611329	861.432494	1528.947252	-310.507834	824.119763	1495.952547	-487.941529	846.181088	1325.509005	-79.755427	761.796579	1281.75554	-98.725281	763.147558	1225.368216	-58.570468	771.15735	1160.790045	-35.085102	745.024272	1149.113838	-121.082387	816.8159429999999	1423.246104	-559.205448	741.977533	1356.986544	-556.748048	755.557327	1319.91322	-622.257076	747.410275	1247.770256	-656.184001	705.587613	1229.857942	-577.056902	828.155139	1111.307084	-55.956384	1009.25144	1153.595829	-121.023214	1009.01836	1086.059669	-109.187385	800.588361	1172.348454	-621.599556	948.916863	1178.348238	-529.255282	942.908561	1117.721944	-562.557531	
79	0.89	916.455112	1010.046195	-444.409316	906.18232	1018.581582	-206.209347	748.33769	1057.824891	-383.1486	744.94514	1061.868612	-295.556392	818.849936	765.261974	-170.098558	893.246711	697.008961	-200.462838	827.328806	594.880615	-213.910952	883.925834	799.925074	-485.726601	1013.150771	744.3176580000001	-476.997278	1015.435871	641.33108	-466.548861	818.43345	353.107137	-288.522375	753.018335	317.54468	-253.257288	710.2750150000001	204.589933	-309.3742	613.870665	131.775957	-304.035445	648.001558	145.386891	-382.850362	989.256196	469.694687	-429.900937	863.960506	510.066861	-463.77362	804.037329	416.516078	-432.109616	548.9125790000001	113.039836	-376.240981	765.191474	62.960611	-328.391947	684.405622	56.806292	-264.46187	622.238425	450.681364	-396.337577	698.206966	241.473435	-422.709001	662.653459	292.187084	-489.672823	903.915697	1531.312013	-473.315249	910.6451960000001	1484.810491	-156.968854	974.824642	1436.736237	-297.810994	861.338573	1534.584971	-309.837028	818.01471	1501.478411	-485.035744	854.45973	1331.118786	-79.14697200000001	770.097763	1286.927298	-94.283911	773.402769	1230.065612	-54.766631	783.497358	1165.550709	-32.063565	754.008498	1153.978103	-117.322699	807.977158	1430.709506	-557.395343	733.040814	1365.668967	-554.279997	744.066248	1327.911425	-619.362135	733.192369	1256.586206	-652.5999420000001	693.442952	1239.138545	-572.1319549999999	841.4104149999999	1119.450909	-56.808317	1016.310392	1171.825336	-130.85456	1020.236359	1104.366096	-119.555021	787.0141589999999	1181.519159	-619.514676	938.1606860000001	1187.750504	-531.915566	930.814478	1126.775273	-564.021138	
